<?xml version="1.0" encoding="utf-8"?>
<!-- Uploaded to: SVG Repo, www.svgrepo.com, Generator: SVG Repo Mixer Tools -->
<svg width="800px" height="800px" viewBox="0 -10.46 173.66 173.66" xmlns="http://www.w3.org/2000/svg">

<defs>

<style>.cls-1{fill:#ffffff;}</style>

</defs>

<g id="Layer_2" data-name="Layer 2">

<g id="Layer_1-2" data-name="Layer 1">

<path d="M2.42,6.21C8.34,5.7,13.71,5.3,19.06,4.77,30.45,3.64,41.82,2.24,53.22,1.34,62.63.6,72.08.12,81.51,0c28.36-.28,56.65,1.31,84.89,3.82,4.81.43,6.25,1.7,6.31,6.3.16,11.69,1.67,23.37,0,35.06a38.79,38.79,0,0,0-.23,6q.27,29.6.62,59.21c.11,8.58.5,17.15.6,25.73.06,5.64-.94,7-6.41,8.42-4.13,1-8.43,1.44-12.64,2.2A210,210,0,0,1,123,149.59c-21.15.63-42.35.95-63.44,2.58-16.11,1.25-32,.26-48-1.07-7.58-.63-8.24-1.1-9.4-8.37A107,107,0,0,1,.85,128.22c-.42-20-.93-40.07-.84-60.11C.07,55,1.14,41.82,1.68,28.67c.18-4.57.08-9.16.2-13.74C2,12.14,2.22,9.36,2.42,6.21ZM9.1,13.77C9,16.2,8.83,17.61,8.8,19c-.15,8-.26,16-.42,24-.25,11.74-.82,23.49-.71,35.23.16,17.19.72,34.37,1.28,51.56.14,4.21-.15,8.62,2.45,12.64a23.4,23.4,0,0,0,3.22.83,212.91,212.91,0,0,0,42.9,1.24c4.57-.37,9.14-.8,13.72-1,15.18-.71,30.36-1.22,45.53-2,12.58-.66,25.2-.56,37.67-2.82,10.12-1.84,10.43-2,10.82-12.5,0-.57,0-1.14,0-1.72q.08-33.09.16-66.19c0-2.87.17-5.73.21-8.6.15-10.88.31-21.76.36-32.64a32.82,32.82,0,0,0-.85-5.23c-16.35-1-32.33-2.14-48.31-3C108,8.34,99.09,8,90.21,8c-11.74.09-23.5.38-35.21,1.12-10.57.66-21.09,2-31.63,3.12C18.82,12.73,14.28,13.23,9.1,13.77Z"/>

<path class="cls-1" d="M9.1,13.77c5.18-.54,9.72-1,14.27-1.5C33.91,11.19,44.43,9.81,55,9.15c11.71-.74,23.47-1,35.21-1.12,8.88-.07,17.77.31,26.64.8,16,.88,32,2,48.31,3a32.82,32.82,0,0,1,.85,5.23c0,10.88-.21,21.76-.36,32.64,0,2.87-.2,5.73-.21,8.6q-.1,33.09-.16,66.19c0,.58,0,1.15,0,1.72-.39,10.5-.7,10.66-10.82,12.5-12.47,2.26-25.09,2.16-37.67,2.82-15.17.8-30.35,1.31-45.53,2-4.58.21-9.15.64-13.72,1a212.91,212.91,0,0,1-42.9-1.24,23.4,23.4,0,0,1-3.22-.83c-2.6-4-2.31-8.43-2.45-12.64C8.39,112.68,7.83,95.5,7.67,78.31c-.11-11.74.46-23.49.71-35.23.16-8,.27-16,.42-24C8.83,17.61,9,16.2,9.1,13.77Zm137.61,56.6a12.46,12.46,0,0,0-1.48-2.66,8.92,8.92,0,0,0-2.74-2c-12.4-5.18-24.82-10.37-37.89-13.66-11.92-3-23.9-5.8-35.89-8.54A95.63,95.63,0,0,0,56,41.44c-5-.46-6.9,1.21-7.31,6.15C48,55.84,47.08,64,47.81,72.41s.34,16.57.46,24.87c.06,3.72.29,7.44.18,11.15-.2,6.1,2.9,9.17,10.13,7.38a21,21,0,0,0,3.22-1.16c9.72-4.19,19.45-8.34,29.13-12.62,14.89-6.59,29.74-13.28,44.62-19.9A19.94,19.94,0,0,0,146.71,70.37Z"/>

<path d="M146.71,70.37a19.94,19.94,0,0,1-11.16,11.76c-14.88,6.62-29.73,13.31-44.62,19.9-9.68,4.28-19.41,8.43-29.13,12.62a21,21,0,0,1-3.22,1.16c-7.23,1.79-10.33-1.28-10.13-7.38.11-3.71-.12-7.43-.18-11.15-.12-8.3.26-16.63-.46-24.87s.21-16.57.9-24.82C49.12,42.65,51,41,56,41.44a95.63,95.63,0,0,1,12.69,2.08c12,2.74,24,5.53,35.89,8.54,13.07,3.29,25.49,8.48,37.89,13.66a8.92,8.92,0,0,1,2.74,2A12.46,12.46,0,0,1,146.71,70.37ZM57.08,106.54a26.8,26.8,0,0,0,3.77-.93c6.84-2.9,13.67-5.79,20.45-8.81q23.07-10.29,46.1-20.69c2.22-1,4.6-1.93,5.26-5.11-3.14-1.42-5.94-2.82-8.84-4a174,174,0,0,0-27-8.24c-11.16-2.36-22.2-5.29-33.29-8-2.23-.55-4.43-1.21-7,.24a20,20,0,0,0-.75,4.7C57,72.49,55.73,89.31,57.08,106.54Z"/>

<path class="cls-1" d="M57.08,106.54C55.73,89.31,57,72.49,55.81,55.75a20,20,0,0,1,.75-4.7c2.56-1.45,4.76-.79,7-.24,11.09,2.7,22.13,5.63,33.29,8a174,174,0,0,1,27,8.24c2.9,1.14,5.7,2.54,8.84,4-.66,3.18-3,4.11-5.26,5.11q-23,10.38-46.1,20.69c-6.78,3-13.61,5.91-20.45,8.81A26.8,26.8,0,0,1,57.08,106.54Z"/>

</g>

</g>

</svg>